<mxfile host="app.diagrams.net" agent="Mozilla/5.0 (Macintosh; Intel Mac OS X 10_15_7) AppleWebKit/537.36 (KHTML, like Gecko) Chrome/140.0.0.0 Safari/537.36" version="28.2.4">
  <diagram name="Page-1" id="BB92z_yky-GVl5gyzOC1">
    <mxGraphModel dx="785" dy="544" grid="1" gridSize="10" guides="1" tooltips="1" connect="1" arrows="1" fold="1" page="1" pageScale="1" pageWidth="850" pageHeight="1100" math="0" shadow="0">
      <root>
        <mxCell id="0" />
        <mxCell id="1" parent="0" />
        <mxCell id="kBXU-PN6IRF7qplvmvGN-1" value="Provide Expert, Non-Promotional&#xa;Answers in Subreddits" style="whiteSpace=wrap;strokeWidth=2;sketch=1;curveFitting=1;jiggle=2;" vertex="1" parent="1">
          <mxGeometry x="144" y="20" width="260" height="102" as="geometry" />
        </mxCell>
        <mxCell id="kBXU-PN6IRF7qplvmvGN-2" value="HackerRank as Most&#xa;Trusted Authority" style="rhombus;strokeWidth=2;whiteSpace=wrap;sketch=1;curveFitting=1;jiggle=2;" vertex="1" parent="1">
          <mxGeometry x="164" y="195" width="220" height="220" as="geometry" />
        </mxCell>
        <mxCell id="kBXU-PN6IRF7qplvmvGN-3" value="High-Intent Organic Traffic" style="whiteSpace=wrap;strokeWidth=2;sketch=1;curveFitting=1;jiggle=2;" vertex="1" parent="1">
          <mxGeometry x="20" y="487" width="252" height="54" as="geometry" />
        </mxCell>
        <mxCell id="kBXU-PN6IRF7qplvmvGN-4" value="More Sign-Ups" style="whiteSpace=wrap;strokeWidth=2;sketch=1;curveFitting=1;jiggle=2;" vertex="1" parent="1">
          <mxGeometry x="322" y="487" width="160" height="54" as="geometry" />
        </mxCell>
        <mxCell id="kBXU-PN6IRF7qplvmvGN-5" value="Establishes" style="curved=1;startArrow=none;endArrow=block;exitX=0.5;exitY=1;entryX=0.5;entryY=0;rounded=0;sketch=1;curveFitting=1;jiggle=2;" edge="1" parent="1" source="kBXU-PN6IRF7qplvmvGN-1" target="kBXU-PN6IRF7qplvmvGN-2">
          <mxGeometry relative="1" as="geometry">
            <Array as="points" />
          </mxGeometry>
        </mxCell>
        <mxCell id="kBXU-PN6IRF7qplvmvGN-6" value="Drives" style="curved=1;startArrow=none;endArrow=block;exitX=0.06;exitY=1;entryX=0.5;entryY=-0.01;rounded=0;sketch=1;curveFitting=1;jiggle=2;" edge="1" parent="1" source="kBXU-PN6IRF7qplvmvGN-2" target="kBXU-PN6IRF7qplvmvGN-3">
          <mxGeometry relative="1" as="geometry">
            <Array as="points">
              <mxPoint x="146" y="450" />
            </Array>
          </mxGeometry>
        </mxCell>
        <mxCell id="kBXU-PN6IRF7qplvmvGN-7" value="Drives" style="curved=1;startArrow=none;endArrow=block;exitX=0.94;exitY=1;entryX=0.5;entryY=-0.01;rounded=0;sketch=1;curveFitting=1;jiggle=2;" edge="1" parent="1" source="kBXU-PN6IRF7qplvmvGN-2" target="kBXU-PN6IRF7qplvmvGN-4">
          <mxGeometry relative="1" as="geometry">
            <Array as="points">
              <mxPoint x="402" y="450" />
            </Array>
          </mxGeometry>
        </mxCell>
      </root>
    </mxGraphModel>
  </diagram>
</mxfile>
